<?xml version="1.0" standalone="no"?>
<!DOCTYPE svg PUBLIC "-//W3C//DTD SVG 20010904//EN"
 "http://www.w3.org/TR/2001/REC-SVG-20010904/DTD/svg10.dtd">
<svg version="1.0" xmlns="http://www.w3.org/2000/svg"
 width="511.000000pt" height="511.000000pt" viewBox="0 0 511.000000 511.000000"
 preserveAspectRatio="xMidYMid meet">
<metadata>
Created by potrace 1.14, written by Peter Selinger 2001-2017
</metadata>
<g transform="translate(0.000000,511.000000) scale(0.100000,-0.100000)"
fill="#000000" stroke="none">
<path d="M3111 4319 c-50 -10 -83 -29 -122 -72 -79 -86 -55 -261 51 -363 48
-47 120 -89 120 -71 1 7 6 5 14 -5 14 -18 70 -24 93 -10 6 4 13 21 16 37 4 28
4 28 6 -6 0 -20 4 -38 7 -41 8 -9 85 20 109 40 11 9 32 35 45 57 22 35 25 51
24 125 -1 76 -4 90 -31 135 -33 55 -86 115 -101 115 -5 0 -15 7 -22 14 -13 17
-91 45 -136 50 -16 1 -49 -1 -73 -5z m273 -349 c14 -5 26 -15 26 -22 0 -18
-50 -58 -72 -58 -15 0 -18 -5 -13 -21 5 -16 3 -20 -6 -16 -8 2 -13 10 -11 17
2 7 -3 10 -12 7 -8 -3 -17 1 -20 9 -8 21 -8 79 1 87 10 10 78 8 107 -3z m-18
-148 c-2 -2 -10 -4 -18 -6 -7 -1 -19 -5 -25 -9 -17 -11 -16 1 1 19 11 11 16
11 20 1 4 -6 4 -1 2 13 -5 24 -4 24 9 6 8 -11 13 -21 11 -24z"/>
<path d="M1875 4264 c-5 -1 -22 -5 -37 -8 -14 -3 -44 -23 -66 -45 -58 -58 -81
-157 -57 -256 19 -85 69 -139 141 -155 31 -7 34 -6 34 15 0 13 -5 25 -12 27
-18 6 -18 342 0 376 14 28 13 50 -3 46z"/>
<path d="M1920 4250 c0 -10 7 -23 15 -30 12 -10 15 -44 15 -190 0 -146 -3
-180 -15 -190 -8 -7 -15 -21 -15 -31 0 -14 6 -17 26 -13 101 18 167 116 163
239 -5 126 -58 203 -156 226 -28 6 -33 4 -33 -11z"/>
<path d="M2507 4257 c-52 -13 -111 -74 -132 -138 -35 -105 -2 -241 71 -291 49
-33 112 -44 110 -18 -1 9 -9 24 -18 34 -16 15 -18 39 -18 185 0 155 2 169 20
186 20 18 26 41 13 48 -5 2 -25 0 -46 -6z"/>
<path d="M2690 4256 c-12 -12 -23 -13 -57 -3 -23 6 -45 8 -48 5 -10 -10 6 -35
31 -47 16 -7 35 -32 51 -69 32 -69 31 -68 44 -55 14 14 16 160 3 173 -6 6 -15
4 -24 -4z"/>
<path d="M2675 3896 c-18 -29 -38 -47 -59 -53 -23 -7 -30 -14 -28 -29 5 -27 6
-27 43 -11 61 26 113 103 85 126 -10 9 -20 1 -41 -33z"/>
<path d="M2186 3898 c-34 -49 -8 -102 50 -102 58 0 83 53 48 102 -10 15 -25
22 -49 22 -24 0 -39 -7 -49 -22z"/>
<path d="M2818 3906 c-49 -36 -12 -121 49 -110 34 6 53 29 53 64 0 50 -61 78
-102 46z"/>
<path d="M3050 3738 c0 -4 4 -8 9 -8 6 0 12 4 15 8 3 5 -1 9 -9 9 -8 0 -15 -4
-15 -9z"/>
<path d="M3090 3740 c0 -15 14 -19 27 -9 10 9 13 8 13 0 0 -8 8 -10 23 -5 12
4 30 7 41 6 10 0 15 2 12 5 -9 9 -116 12 -116 3z"/>
<path d="M3204 3582 c0 -139 -10 -301 -24 -386 -5 -33 -12 -83 -15 -111 -23
-182 -114 -430 -206 -564 -38 -56 -156 -181 -170 -181 -4 0 -14 -6 -22 -14
-25 -25 -134 -75 -214 -98 -116 -34 -317 -32 -463 5 -109 27 -236 71 -258 89
-7 6 -15 8 -18 5 -7 -7 151 -100 281 -165 104 -52 265 -118 306 -126 13 -2 53
-12 89 -21 43 -12 104 -18 180 -19 101 0 124 3 188 27 188 70 297 209 367 467
43 157 50 235 50 515 0 195 -9 380 -21 440 -2 11 -12 73 -21 138 -10 64 -20
117 -23 117 -3 0 -5 -53 -6 -118z"/>
<path d="M2230 3239 c-106 -20 -158 -86 -165 -211 -10 -182 112 -392 285 -491
45 -26 67 -31 135 -35 76 -3 82 -2 120 26 118 88 119 286 5 476 -92 153 -262
258 -380 235z"/>
<path d="M3013 1805 c-54 -33 -71 -84 -49 -151 6 -20 54 -48 159 -93 45 -19
48 -23 45 -53 -2 -28 -8 -34 -33 -38 -51 -10 -95 10 -131 60 -19 25 -34 52
-34 60 0 8 -5 22 -10 30 -7 10 -9 -15 -9 -80 1 -52 4 -86 6 -75 11 42 22 45
75 17 83 -43 170 -27 203 38 38 74 1 133 -116 181 -87 36 -114 64 -89 94 7 8
19 15 26 15 8 0 14 5 14 10 0 15 -11 12 -57 -15z"/>
<path d="M3080 1827 c0 -3 19 -14 43 -26 40 -20 54 -35 84 -91 12 -23 13 -19
12 45 0 39 -3 63 -6 55 -10 -26 -27 -29 -58 -11 -32 20 -75 35 -75 28z"/>
<path d="M1852 1805 c13 -5 26 -14 30 -20 4 -5 8 -76 8 -157 0 -134 -2 -148
-19 -157 -10 -6 -21 -8 -24 -5 -3 3 -7 2 -10 -3 -3 -5 82 -8 189 -8 l194 0 0
80 c-1 73 -2 78 -15 61 -8 -11 -15 -25 -15 -30 -1 -6 -16 -28 -34 -50 -26 -30
-43 -40 -78 -46 -24 -3 -50 -4 -56 -2 -8 2 -12 31 -12 83 0 77 1 79 24 79 27
0 39 -12 54 -55 8 -25 10 -13 10 65 -1 85 -2 91 -12 61 -12 -34 -40 -61 -63
-61 -11 0 -13 18 -11 83 l3 82 30 -3 c65 -6 79 -17 150 -117 13 -18 14 -13 15
56 l0 75 -191 0 c-135 0 -184 -3 -167 -11z"/>
<path d="M2403 1807 c-3 -6 -2 -7 4 -4 6 4 17 1 26 -6 13 -10 16 -36 17 -142
2 -191 3 -185 -20 -185 -11 0 -20 -3 -20 -8 0 -4 51 -7 114 -7 63 0 112 3 109
8 -2 4 -8 5 -12 2 -5 -2 -16 2 -26 9 -14 10 -18 28 -19 74 -1 60 0 62 24 63
123 3 151 13 170 59 18 43 3 97 -33 124 -25 18 -43 20 -178 21 -88 1 -152 -2
-156 -8z m239 -16 c12 -11 16 -113 7 -138 -9 -24 -57 -42 -68 -25 -5 8 -7 140
-2 176 1 9 51 -1 63 -13z"/>
<path d="M2300 1544 c-48 -13 -39 -86 12 -92 35 -4 62 32 46 62 -11 21 -28 37
-38 35 -3 -1 -12 -3 -20 -5z"/>
<path d="M2818 1536 c-27 -20 -14 -70 21 -79 48 -12 84 60 42 83 -26 13 -42
12 -63 -4z"/>
<path d="M1370 1239 c0 -5 -6 -7 -12 -3 -9 5 -10 4 -3 -4 15 -16 75 -25 75
-11 0 8 4 8 13 1 19 -16 21 -16 46 -3 19 11 22 11 16 0 -6 -9 -3 -10 10 -6 9
4 23 3 30 -3 10 -8 15 -8 21 1 5 8 3 9 -6 4 -9 -5 -11 -4 -6 4 4 6 12 9 17 5
18 -11 99 -12 99 -2 0 6 7 4 17 -3 9 -8 17 -14 17 -13 1 0 12 6 25 13 19 11
22 11 16 0 -6 -9 -3 -10 10 -6 9 4 23 3 30 -3 10 -8 15 -8 21 1 5 8 3 9 -6 4
-9 -5 -11 -4 -6 3 5 8 13 9 25 3 19 -11 76 -9 87 2 4 4 16 -1 27 -10 11 -10
17 -12 13 -5 -6 10 2 12 31 11 21 -1 43 -6 50 -11 7 -6 14 -4 19 3 5 8 3 9 -6
4 -9 -5 -11 -4 -6 4 4 6 12 9 17 5 18 -11 99 -12 93 -2 -4 7 0 6 12 0 24 -13
34 -13 58 0 14 8 17 7 11 -3 -6 -9 -3 -10 10 -6 9 4 23 3 30 -3 10 -8 15 -8
21 1 5 8 3 9 -6 4 -9 -5 -11 -4 -6 4 4 6 12 9 17 5 18 -11 99 -12 93 -2 -4 6
4 4 17 -3 13 -7 24 -12 24 -12 0 0 11 5 24 12 13 7 21 9 17 3 -3 -6 16 -9 52
-7 31 1 62 -2 69 -7 7 -6 14 -5 19 3 5 8 3 9 -6 4 -9 -5 -11 -4 -6 4 4 6 12 9
17 5 19 -12 99 -12 99 0 0 6 5 4 10 -4 9 -13 11 -13 20 0 5 8 10 10 10 4 0 -5
15 -9 32 -8 18 1 38 -2 45 -7 7 -7 14 -6 19 2 5 8 3 9 -6 4 -9 -5 -11 -4 -6 4
4 6 12 9 17 5 18 -11 99 -12 92 -1 -4 6 -1 7 7 2 19 -12 141 -14 134 -3 -4 6
2 6 13 0 22 -12 71 -11 92 2 9 6 12 5 8 -1 -4 -6 0 -13 8 -17 8 -3 17 0 21 6
5 7 2 8 -6 3 -8 -5 -11 -4 -6 3 4 6 17 8 34 3 15 -4 33 -6 40 -4 6 3 12 -1 12
-7 0 -7 6 -5 16 4 8 9 20 13 26 10 18 -11 88 -12 88 -2 0 6 7 4 17 -3 9 -8 17
-14 17 -13 1 0 12 6 25 13 19 11 22 11 16 0 -6 -9 -3 -10 10 -6 9 4 23 3 30
-3 10 -8 15 -8 21 1 5 8 3 9 -6 4 -9 -5 -11 -4 -6 3 5 8 14 9 24 4 31 -16 92
-4 92 19 0 5 -438 9 -1150 9 -803 0 -1150 -3 -1150 -11z"/>
<path d="M1663 1128 c-7 -16 -5 -35 8 -70 9 -26 14 -49 11 -52 -3 -3 9 -6 26
-6 18 0 32 2 32 4 0 15 -54 146 -60 146 -4 0 -11 -10 -17 -22z"/>
<path d="M1995 1141 c-2 -4 -2 -23 0 -44 5 -43 2 -44 -25 -17 -27 27 -42 26
-31 -3 5 -13 7 -35 4 -50 -3 -15 -3 -27 0 -27 17 0 37 14 37 25 0 8 5 17 10
20 7 4 9 -3 6 -20 -4 -22 -2 -26 16 -23 19 3 22 9 21 58 -1 84 -2 87 -18 87
-9 0 -18 -3 -20 -6z"/>
<path d="M2073 1143 c-18 -6 -16 -33 1 -33 8 0 17 4 20 8 7 12 -7 30 -21 25z"/>
<path d="M2420 1140 c-12 -7 -12 -12 -2 -22 14 -14 16 -32 2 -23 -6 4 -10 -13
-10 -44 0 -44 3 -51 20 -51 19 0 20 6 18 71 -2 74 -5 83 -28 69z"/>
<path d="M2808 1073 c3 -64 6 -73 23 -73 17 0 19 8 19 73 0 69 -1 73 -22 73
-22 0 -23 -3 -20 -73z"/>
<path d="M3245 1140 c-10 -17 12 -37 25 -24 8 8 6 15 -4 23 -10 9 -16 9 -21 1z"/>
<path d="M3404 1139 c-8 -14 11 -33 25 -25 11 7 4 36 -9 36 -5 0 -12 -5 -16
-11z"/>
<path d="M2349 1110 c-12 -12 -14 -28 -10 -61 5 -37 10 -45 30 -47 17 -3 21 0
15 10 -14 22 -11 62 5 76 13 10 13 12 1 10 -8 -2 -14 2 -15 9 0 19 -9 20 -26
3z"/>
<path d="M1758 1081 c5 -9 8 -40 6 -68 -1 -29 1 -53 5 -54 3 0 13 -2 21 -4 12
-2 14 10 12 69 -3 67 -5 71 -27 72 -20 2 -23 -2 -17 -15z"/>
<path d="M1818 1088 c16 -16 15 -75 0 -81 -9 -4 -8 -6 2 -6 41 -2 61 48 31 78
-12 12 -26 21 -33 21 -9 0 -9 -3 0 -12z"/>
<path d="M1876 1089 c8 -13 9 -113 2 -125 -4 -5 6 -9 20 -9 l27 -1 -3 71 c-3
66 -5 70 -28 71 -13 1 -21 -2 -18 -7z"/>
<path d="M2055 1049 c0 -43 3 -49 21 -49 18 0 20 6 20 49 0 42 -3 49 -21 49
-17 0 -20 -7 -20 -49z"/>
<path d="M2142 1085 c-12 -9 -22 -25 -22 -35 0 -23 26 -50 48 -50 12 0 13 3 5
8 -12 8 -18 31 -15 65 3 24 22 21 22 -3 0 -18 4 -20 38 -15 29 5 33 4 20 -5
-28 -17 -17 -50 17 -50 2 0 3 20 2 45 -1 25 1 45 6 45 7 0 11 -22 7 -54 -2
-17 15 -35 33 -36 4 0 7 18 7 40 0 34 -4 42 -26 50 -19 7 -31 7 -40 -1 -13
-11 -29 -9 -64 5 -8 3 -25 -1 -38 -9z"/>
<path d="M2490 1082 c-18 -14 -21 -25 -17 -44 11 -44 33 -42 33 3 0 21 3 42 8
46 12 13 23 -17 19 -53 -4 -38 3 -43 23 -16 20 25 17 49 -8 66 -28 20 -31 20
-58 -2z"/>
<path d="M2579 1086 c4 -6 7 -28 6 -48 -2 -33 1 -38 19 -38 18 0 21 6 21 45 0
25 -2 46 -5 46 -28 7 -49 5 -41 -5z"/>
<path d="M2650 1050 c0 -42 3 -50 18 -50 18 0 19 1 13 76 -1 7 -8 14 -16 18
-12 4 -15 -4 -15 -44z"/>
<path d="M2768 1089 c-21 -12 -24 -59 -6 -77 21 -21 29 -13 25 21 -2 17 0 40
5 50 10 19 2 21 -24 6z"/>
<path d="M2894 1090 c-27 -11 -37 -36 -24 -61 11 -19 56 -36 67 -25 4 3 -1 6
-10 6 -9 0 -18 12 -22 31 -7 33 7 60 20 39 4 -7 1 -16 -6 -21 -10 -6 -6 -9 14
-9 32 0 37 24 8 40 -22 11 -19 11 -47 0z"/>
<path d="M3038 1093 c-26 -7 -22 -38 8 -58 21 -13 24 -19 13 -26 -8 -5 -9 -9
-3 -9 22 0 47 27 38 41 -5 8 -7 22 -6 32 2 9 -1 17 -7 17 -6 0 -8 -7 -4 -16 4
-12 2 -15 -8 -12 -8 3 -13 13 -13 22 1 9 1 15 0 15 0 -1 -9 -3 -18 -6z"/>
<path d="M3108 1085 c4 -5 7 -21 7 -35 0 -30 12 -50 28 -50 8 0 12 17 11 47 0
45 -2 48 -26 48 -16 1 -24 -3 -20 -10z"/>
<path d="M3175 1050 c1 -37 5 -45 21 -45 15 0 18 7 17 38 -1 55 -2 56 -22 54
-15 -1 -18 -9 -16 -47z"/>
<path d="M3235 1048 c0 -42 3 -48 20 -48 18 0 21 6 19 43 -2 57 -2 56 -21 54
-15 -1 -18 -10 -18 -49z"/>
<path d="M3299 1085 c5 -5 14 -27 20 -47 15 -45 24 -47 39 -13 15 32 15 36 0
33 -8 -2 -13 6 -12 18 0 17 -5 21 -27 20 -17 0 -24 -5 -20 -11z"/>
<path d="M3375 1090 c-4 -6 -4 -14 -1 -17 3 -4 6 -1 6 5 0 7 5 12 10 12 6 0
10 -20 10 -45 0 -37 3 -45 18 -45 15 0 18 8 18 47 -1 42 -3 47 -28 50 -14 2
-30 -1 -33 -7z"/>
<path d="M3010 1031 c0 -10 19 -25 25 -20 1 2 -3 10 -11 17 -8 7 -14 8 -14 3z"/>
<path d="M1618 1003 c6 -2 18 -2 25 0 6 3 1 5 -13 5 -14 0 -19 -2 -12 -5z"/>
<path d="M2140 846 c4 -59 8 -70 25 -72 19 -3 20 2 17 69 -3 67 -5 73 -25 73
-21 0 -22 -3 -17 -70z"/>
<path d="M2539 906 c9 -13 8 -106 -1 -122 -4 -6 3 -10 20 -10 l27 0 -3 71 c-3
67 -5 71 -27 71 -15 0 -21 -4 -16 -10z"/>
<path d="M2480 895 c-14 -16 -10 -18 14 -9 9 3 16 10 16 15 0 14 -16 11 -30
-6z"/>
<path d="M2630 895 c7 -8 16 -15 21 -15 5 0 6 7 3 15 -4 8 -13 15 -21 15 -13
0 -13 -3 -3 -15z"/>
<path d="M2098 859 c-25 -14 -24 -65 1 -79 28 -14 33 -13 22 9 -10 18 -8 51 4
71 8 13 -5 12 -27 -1z"/>
<path d="M2224 860 c-40 -15 -35 -68 8 -83 22 -8 30 3 13 19 -7 8 -12 22 -10
31 2 10 4 23 4 28 1 6 5 3 10 -5 6 -8 8 -17 6 -20 -2 -3 5 -7 16 -7 14 -1 19
3 17 14 -4 21 -38 32 -64 23z"/>
<path d="M2318 859 c-25 -14 -22 -34 7 -47 26 -12 34 -32 13 -32 -6 0 -9 -3
-6 -6 4 -3 15 -1 26 5 26 14 29 81 4 81 -15 0 -15 -2 -2 -10 8 -5 11 -12 7
-16 -9 -9 -38 16 -31 27 7 11 3 11 -18 -2z"/>
<path d="M2451 851 c-24 -24 -25 -31 -8 -54 15 -21 54 -30 63 -15 4 6 3 8 -3
5 -6 -4 -17 0 -24 9 -10 13 -10 17 2 25 10 6 10 9 2 9 -7 0 -13 7 -13 15 0 22
18 18 25 -5 7 -22 20 -26 31 -9 8 13 -3 24 -33 33 -15 5 -28 1 -42 -13z"/>
<path d="M2655 848 c10 -30 11 -32 30 -24 19 7 12 21 -17 37 -18 10 -19 8 -13
-13z"/>
<path d="M2718 831 c28 -62 34 -66 49 -30 15 36 17 51 4 30 -8 -12 -11 -10
-16 10 -4 18 -13 25 -29 25 -23 0 -24 0 -8 -35z"/>
<path d="M2776 858 c3 -5 10 -6 15 -3 13 9 11 12 -6 12 -8 0 -12 -4 -9 -9z"/>
<path d="M2823 858 c-38 -18 -28 -70 15 -80 21 -6 32 7 12 14 -15 5 -17 60 -3
65 7 3 11 -3 9 -14 -3 -13 2 -19 15 -20 25 -2 25 23 0 37 -23 12 -20 12 -48
-2z"/>
<path d="M2918 859 c-25 -14 -22 -34 7 -47 14 -6 25 -19 25 -28 0 -13 3 -14
14 -5 19 16 18 78 -1 86 -13 4 -14 3 -3 -10 7 -9 10 -18 7 -22 -9 -8 -38 17
-31 28 7 11 3 11 -18 -2z"/>
<path d="M2607 853 c-10 -9 -8 -45 2 -62 10 -16 58 -18 73 -3 8 8 4 9 -12 5
-25 -7 -47 17 -27 29 9 6 9 8 0 8 -7 0 -10 7 -7 15 6 15 -16 21 -29 8z"/>
<path d="M2300 795 c0 -8 4 -15 10 -15 5 0 7 7 4 15 -4 8 -8 15 -10 15 -2 0
-4 -7 -4 -15z"/>
<path d="M2900 795 c0 -8 4 -15 10 -15 5 0 7 7 4 15 -4 8 -8 15 -10 15 -2 0
-4 -7 -4 -15z"/>
</g>
</svg>
